<svg xmlns="http://www.w3.org/2000/svg" xmlns:xlink="http://www.w3.org/1999/xlink" xml:space="preserve" style="shape-rendering:geometricPrecision;text-rendering:geometricPrecision;image-rendering:optimizeQuality;" viewBox="0 0 173.397 216.74624999999997" x="0px" y="0px" fill-rule="evenodd" clip-rule="evenodd"><defs><style type="text/css">
   
    .fil1 {fill:none}
    .fil0 {fill:black}
   
  </style></defs><g><g><path class="fil0" d="M91.3875 69.741l4.4127 4.4091 21.7832 -21.7832 -4.4126 -4.4092 -21.7833 21.7833zm4.4127 7.2129c-0.6121,0 -1.2275,-0.2339 -1.696,-0.7024l-4.818 -4.8183c-0.4512,-0.4512 -0.6995,-1.0524 -0.6995,-1.6921 0.0001,-0.6437 0.2482,-1.2448 0.6993,-1.6959l22.189 -22.1888c0.937,-0.9374 2.4578,-0.937 3.3913,-0.0034l4.8184 4.8181c0.937,0.937 0.9334,2.4581 -0.0002,3.3916l-22.1886 22.1887c-0.4685,0.4685 -1.0805,0.7029 -1.6957,0.7025z"/><path class="fil0" d="M113.884 48.1116c-0.3426,0 -0.6853,-0.1293 -0.9476,-0.3915 -0.5243,-0.5247 -0.5245,-1.3741 0,-1.8985l8.7345 -8.7347c0.5244,-0.5243 1.3739,-0.5241 1.8984,0.0003 0.5247,0.5245 0.5244,1.3742 0,1.8987l-8.7342 8.7339c-0.2623,0.2623 -0.6085,0.392 -0.9511,0.3918z"/><path class="fil0" d="M126.146 35.8495c-0.343,0 -0.6857,-0.1329 -0.9479,-0.3916 -0.5244,-0.5245 -0.5245,-1.3776 0,-1.9021l7.668 -7.6645c0.5243,-0.5244 1.3739,-0.5243 1.8984,0.0002 0.5246,0.5209 0.5244,1.3741 0,1.8986l-7.6678 7.6676c-0.2619,0.2588 -0.6049,0.3918 -0.9507,0.3918z"/><path class="fil0" d="M129.489 39.1918c-0.3426,0 -0.6853,-0.1291 -0.9475,-0.3912 -0.5244,-0.5245 -0.5245,-1.3777 0,-1.9022l7.668 -7.6644c0.5244,-0.5244 1.3739,-0.5244 1.8984,0.0002 0.5247,0.5206 0.5244,1.3741 0,1.8985l-7.6677 7.6677c-0.2624,0.2623 -0.6051,0.3918 -0.9512,0.3914zm-12.2621 12.2625c-0.3425,0 -0.6889,-0.1294 -0.9512,-0.3915 -0.5207,-0.5246 -0.5209,-1.3741 0,-1.8987l8.7381 -8.7344c0.5244,-0.5243 1.3739,-0.5242 1.8983,0.0002 0.5248,0.5241 0.5245,1.3741 0,1.8986l-8.734 8.734c-0.2623,0.2623 -0.6086,0.3919 -0.9512,0.3918zm-77.3703 111.783c-0.1365,0 -0.273,-0.0209 -0.4164,-0.063 -0.1678,-0.0491 -0.3251,-0.1328 -0.4615,-0.2411 -11.213,-9.0247 -15.3706,-16.6503 -15.5419,-16.9686 -0.2483,-0.4652 -0.2028,-1.0314 0.1154,-1.451 17.8916,-23.4161 27.3076,-31.9161 29.423,-33.7097 1.1189,-10.5947 3.7448,-16.0769 3.8567,-16.3076 0.0629,-0.1297 0.1503,-0.2483 0.2517,-0.3532l58.9826 -59.8041 23.783 -23.7867c0.5141,-0.5105 1.339,-0.5244 1.867,-0.0314l4.315 4.0346c0.0036,0 0.0033,0.0004 0.0068,0.0038 0,-0.0003 0,0 0,0.0035 0.014,0.0104 0.0244,0.021 0.0349,0.0315l3.6539 3.6536c0.5248,0.5243 0.5244,1.3743 -0.0001,1.8989l-7.7726 7.7726c-0.5243,0.5243 -1.3742,0.5245 -1.8987,0 -0.5244,-0.5212 -0.5245,-1.3741 0,-1.8986l6.8255 -6.8217 -1.7622 -1.7622 -6.8252 6.8216c-0.5248,0.5243 -1.3745,0.5246 -1.8989,0.0002 -0.5242,-0.5246 -0.5245,-1.3742 0,-1.8987l6.7903 -6.7904 -2.3531 -2.1992 -22.8602 22.8602 -58.8111 59.6292c-0.4542,1.0349 -2.6433,6.4021 -3.5699,15.7623 -0.0347,0.3633 -0.2203,0.6992 -0.507,0.9231 -0.0906,0.0731 -9.4126,7.5313 -28.8461,32.8809 1.2555,1.9999 5.3182,7.8847 13.486,14.6469 1.203,-1.801 4.6329,-8.2867 12.5629,-31.2097 0.9931,-2.8567 3.3007,-4.1259 4.8286,-4.9651 0.4371,-0.2379 1.0175,-0.5559 1.2308,-0.7587 -0.5663,-2.9022 -1.8636,-12.1608 3.2133,-17.7308 5.528,-6.063 30.7377,-30.762 31.8112,-31.8111 0.5279,-0.5174 1.3775,-0.5105 1.8985,0.0211 0.5175,0.5278 0.507,1.3775 -0.0209,1.8986 -0.2621,0.255 -26.2273,25.6922 -31.7028,31.6992 -4.2972,4.7166 -3.035,13.0664 -2.542,15.514 0.378,1.8915 -1.2727,2.7972 -2.5978,3.5244 -1.3705,0.7516 -2.9301,1.6084 -3.5805,3.4895 -4.7901,13.8389 -8.5734,23.5699 -11.2482,28.916 -1.6537,3.3041 -2.6609,4.5769 -3.72,4.5769z"/><path class="fil0" d="M118.024 43.9718c-0.3427,0 -0.6856,-0.1293 -0.9478,-0.3915l-3.3599 -3.3602c-0.5247,-0.5248 -0.5248,-1.3741 -0.0003,-1.8985 0.5247,-0.5247 1.3741,-0.5246 1.8986,0l3.3605 3.3597c0.5244,0.5248 0.5241,1.3745 -0.0003,1.899 -0.2621,0.2622 -0.6049,0.3915 -0.9508,0.3915z"/><path class="fil0" d="M127.132 43.8912c-0.3425,0 -0.6854,-0.1327 -0.9475,-0.3948l-8.6885 -8.6854c-0.5247,-0.5247 -0.5248,-1.374 -0.0004,-1.8986 0.5247,-0.5245 1.3741,-0.5245 1.8986,0l7.7378 7.7375 1.6297 -1.6292 -7.7381 -7.7412c-0.5244,-0.5213 -0.5245,-1.3741 0,-1.8986 0.5248,-0.5246 1.3742,-0.5245 1.8986,0l8.689 8.6886c0.2518,0.2518 0.3914,0.5947 0.3914,0.9513 0.0003,0.3566 -0.1398,0.6959 -0.3916,0.9476l-3.5278 3.5279c-0.2624,0.2619 -0.6086,0.3951 -0.9512,0.3949z"/><path class="fil0" d="M138.328 32.6955c-0.3426,0 -0.6852,-0.1327 -0.9475,-0.395l-8.6885 -8.6887c-0.5248,-0.5213 -0.5248,-1.3742 -0.0003,-1.8987 0.5247,-0.5213 1.3742,-0.5209 1.8987,0l7.7376 7.7412 1.6298 -1.6293 -7.7378 -7.7413c-0.5247,-0.5247 -0.5248,-1.374 -0.0003,-1.8985 0.5247,-0.5245 1.3741,-0.5245 1.8985,0l8.689 8.6887c0.2517,0.2517 0.3915,0.5944 0.3915,0.9512 0.0003,0.3563 -0.1399,0.6957 -0.3916,0.9475l-3.528 3.5276c-0.2619,0.2624 -0.6084,0.3955 -0.9511,0.3953z"/><path class="fil0" d="M69.115 93.2896l0 0c-0.3569,0 -0.6961,-0.1395 -0.9479,-0.3948l-3.2167 -3.2134c-0.5243,-0.5244 -0.5245,-1.374 0,-1.8985 0.5248,-0.5246 1.3741,-0.5245 1.8986,0l2.266 2.2655 5.6328 -5.6329 -2.2658 -2.2658c-0.5243,-0.5243 -0.5247,-1.3772 -0.0002,-1.8982 0.5245,-0.5248 1.3777,-0.5245 1.9021,0l3.2134 3.2133c0.5247,0.5243 0.5244,1.3741 -0.0001,1.8986l-7.5312 7.5313c-0.2517,0.2553 -0.5946,0.3952 -0.951,0.3949z"/><path class="fil0" d="M65.1042 115.5c-1.643,0 -3.1853,-0.6363 -4.3426,-1.7938l-1.7551 -1.759c-0.5244,-0.5244 -0.5246,-1.3738 -0.0001,-1.8983 0.5244,-0.5248 1.3741,-0.5245 1.8985,0l1.759 1.7586c0.6467,0.6467 1.5137,1.0071 2.4403,1.0071 0.9268,-0.0001 1.7972,-0.3601 2.4441,-1.0069l3.4654 -3.4652c1.3496,-1.3496 1.3493,-3.5418 -0.0004,-4.888l-2.9125 -2.9127c-0.5243,-0.5243 -0.5246,-1.374 -0.0001,-1.8984 0.5248,-0.5246 1.3741,-0.5245 1.8986,0l2.9127 2.9125c2.3952,2.3951 2.3951,6.2902 -0.0001,8.6853l-3.465 3.465c-1.1537,1.1574 -2.6958,1.7938 -4.3427,1.7938z"/><path class="fil0" d="M65.4854 110.283c-1.8669,0 -3.6609,-0.9122 -4.6993,-1.7164 -0.5838,-0.4548 -0.6889,-1.3007 -0.2343,-1.8845 0.4513,-0.5843 1.2937,-0.6923 1.8776,-0.2414l0.0001 -0.0003c0.3323,0.2552 3.2867,2.4095 5.1048,0.0738 0.4548,-0.5875 1.2972,-0.6923 1.8846,-0.2378 0.5842,0.4543 0.6889,1.3007 0.2342,1.8846 -1.2198,1.5734 -2.7168,2.1223 -4.1677,2.122z"/></g></g><rect class="fil1" width="173.397" height="173.397"/><text x="0" y="188.397" fill="#000000" font-size="5px" font-weight="bold" font-family="'Helvetica Neue', Helvetica, Arial-Unicode, Arial, Sans-serif">Created by Muhammad Atiq</text><text x="0" y="193.397" fill="#000000" font-size="5px" font-weight="bold" font-family="'Helvetica Neue', Helvetica, Arial-Unicode, Arial, Sans-serif">from the Noun Project</text></svg>