<svg xmlns="http://www.w3.org/2000/svg" xmlns:xlink="http://www.w3.org/1999/xlink" version="1.1" x="0px" y="0px" viewBox="0 0 200 250" style="enable-background:new 0 0 200 200;" xml:space="preserve"><style type="text/css">
	.st0{fill:none;}
</style><path class="st0" d="M43.2,121.5c-1.3,1.3-2.6,2.7-3.8,4c-0.2,0.2-0.4,0.4-0.4,1c0.8-0.4,1.5-0.5,2.2-0.8c0.6-0.3,1.2-0.8,1.5-1.4  c0.4-0.9,1.1-1.6,1.8-2.3c0.3-0.3,0.5-0.6,0.7-0.9c0.1-0.2,0.3-0.4,0-0.6C44.4,120.5,43.8,121,43.2,121.5z"/><path class="st0" d="M38.3,120.4c-0.7-0.1-1,0-1.2,0.8c-0.2,0.8-0.5,1.6-0.9,2.3c-0.1,0.1-0.1,0.3-0.2,0.4c-0.1,0.4,0.1,1,0.5,1.2  c0.3,0.2,0.7,0.1,1.1-0.3c0.5-0.4,0.9-0.9,1.3-1.3c0.4-0.4,0.7-0.9,0.7-1.5C39.7,121,39.2,120.5,38.3,120.4z"/><path d="M108.8,108.1c-0.1-0.3-0.3-0.4-0.5-0.5c-0.2-0.1-0.5-0.2-0.7-0.3c-0.2-0.1-0.4-0.2-0.7-0.3c-0.2-0.1-0.5-0.2-0.7-0.4  c-0.1-0.1-0.3-0.2-0.4-0.3c-0.1,0-0.1-0.1-0.2-0.1c0,0,0,0,0,0c-0.2-0.1-0.3-0.3-0.5-0.4c-0.9-0.7-1.6-1.4-2.4-2.2  c-0.5-0.5-0.7-1.1-1-1.7c-1-1.8-1.2-3.8-1.2-5.8c0-0.7,0.3-1.3,0.8-1.8l-2.2,1.5c-12.8,7.8-3.6,22.2,9.1,13.2c0,0,0.5-0.4,0.6-0.7  C108.8,108.2,108.9,108.2,108.8,108.1z"/><path class="st0" d="M38.3,120.4c-0.7-0.1-1,0-1.2,0.8c-0.2,0.8-0.5,1.6-0.9,2.3c-0.1,0.1-0.1,0.3-0.2,0.4c-0.1,0.4,0.1,1,0.5,1.2  c0.3,0.2,0.7,0.1,1.1-0.3c0.5-0.4,0.9-0.9,1.3-1.3c0.4-0.4,0.7-0.9,0.7-1.5C39.7,121,39.2,120.5,38.3,120.4z"/><path class="st0" d="M43.2,121.5c-1.3,1.3-2.6,2.7-3.8,4c-0.2,0.2-0.4,0.4-0.4,1c0.8-0.4,1.5-0.5,2.2-0.8c0.6-0.3,1.2-0.8,1.5-1.4  c0.4-0.9,1.1-1.6,1.8-2.3c0.3-0.3,0.5-0.6,0.7-0.9c0.1-0.2,0.3-0.4,0-0.6C44.4,120.5,43.8,121,43.2,121.5z"/><path class="st0" d="M105,91.4L99,94.9c-13.8,8.5-3.9,24.3,10,14.5c0,0,0.5-0.4,0.6-0.8c0.1,0.1,0.4,0.2,0.5,0.1l4.6-3.3  C123.1,97.4,115.5,86,105,91.4z"/><path d="M160,21.2C160,21.2,160,21.2,160,21.2c0,0-0.1,0-0.1,0C159.9,21.2,160,21.2,160,21.2z"/><path d="M169.7,35.6c-0.4-0.8-0.9-2-1-2.6c0-0.2-0.3-0.5-0.4-0.7c-0.9-1.7-5.1-9.1-6.8-10.7c-0.3-0.3-1.7-1-2.1-1c0,0,0,0,0,0  c0,0-0.1,0-0.1,0c-0.8,0-3.4-0.9-3.7-1.2c-0.7-0.7-1.4-1-2.2-1c-0.5,0-0.9,0.1-1.5,0.4c-0.4,0.2-4,2.3-5.4,3c-0.8,0.4-1.1,1-0.9,1.9  c0.1,0.6,0.1,3.2-0.5,3.5c-1.6,0.9-90.5,57.9-90.8,57.8c0,0,0,0,0,0c-0.3-0.1-0.6-0.2-0.9-0.2c-0.5,0-1,0.2-1.5,0.3l-11.3,3.6  c-0.9,0.3-1,0.4-1,1.4c-2.3,12.3,4.3,22.3,4.3,22.3c0.3,0.5,0.7,0.9,0.9,1.4c0,0.1,0.1,0.2,0.1,0.3l0.5,0.6l3.6-2.4l4-8.8  c0,0,0.6-1.3,1.9-0.8c1.3,0.5,1.2,0.1,1.7-1s1.3-1.7,1.3-1.7s1.6-1.3,2.6,0.3s1.3,0.7,0.1,4.2c0.1-0.2-0.5,0.6-0.1,0.3  c9.2-5.8,109.1-69.6,109.1-69.6L169.7,35.6z"/><path d="M172,39.3c-0.1-0.4-1.1-2-1.9-3.5l-109.8,70c-0.4-0.1-0.8-0.1-0.8-0.4c0,0,0-0.1,0-0.2c1.2-3.5,1.6-2.6,0.6-4.2  s-2.1-0.4-2.1-0.4s-0.5,0.3-1,1.3s-0.8,1.7-2.1,1.2c-1.3-0.5-1.5,0.6-1.5,0.6l-3.4,7.5l-0.6,1.3l-3.8,2.4c0,0-0.2,0.1-1,0.1  c-2.7,0.2-5.4,0.4-8,0.5c0,0-1.7,0.1-2.8,0.9c-0.7,1.1-0.1,2.2-0.1,2.2c0.8,1.8-0.1,5-0.1,5c-0.3,1.1-0.3,2.1,0.6,3l-0.9,0.3  c-0.8,0.1-1.1,0.6-0.6,1.3c4.5,4.3,7.3,3.6,11.9,1.6c3.8-2.1,8.2-1,10.7,0c2.5,1,4.6,4.8,5,9.2c0,0,0.1,2.9-1,4.1  c-0.5,0.5-0.6,1.1-0.5,1.7l0.5,4.7c0.2,0.8,0.7,1.1,1.5,0.9c1.6-0.8,2-0.5,3.3-1.6l6.3,34.3c-0.6,6.8,2,9.4,12.4,4.6  c0,0,0.8-0.5,1.3,0.5c0.4,2,2,1.5,2,1.5s21.5-8.5,23.8-10.3c4.6-2.6,2.7-5.4,2.7-5.4l-4.1-5.1c-0.4-0.5-1-1-1.1-1.7l-10.1-36.9  c-0.1-0.4-0.2-0.7-0.6-1c-0.3-0.2-0.4-0.6-0.4-0.9c0-0.7-0.1-1.5-0.4-2.2c0,0-1.2-3.7,0.9-5.5c0,0,20.1-14.2,20.9-15.2  c2-3.1,4.4-6,0.1-14.7c-2-3.4-2.2-6.1-0.2-7.8c1.6-1,31.6-20.2,32.5-20.9c1.2-0.9,1.1-2.4-0.2-3.2c-0.2-0.1-0.4-0.2-0.6-0.4  c0.3-0.4,20.2-13.5,21.3-14.3c0.7-0.5,0.8-1.1,0.7-1.9c0-0.2-0.2-1.2,0.2-1.5C172.2,40.6,172.2,40,172,39.3z M37.6,124.8  c-0.4,0.4-0.8,0.5-1.1,0.3c-0.3-0.2-0.6-0.8-0.5-1.2c0-0.1,0.1-0.3,0.2-0.4c0.4-0.7,0.6-1.5,0.9-2.3c0.2-0.7,0.5-0.9,1.2-0.8  c0.9,0.1,1.4,0.7,1.4,1.6c0,0.6-0.3,1.1-0.7,1.5C38.5,123.9,38.1,124.3,37.6,124.8z M45.1,121c-0.2,0.4-0.4,0.6-0.7,0.9  c-0.7,0.7-1.3,1.4-1.8,2.3c-0.3,0.6-0.9,1.1-1.5,1.4c-0.7,0.3-1.4,0.4-2.2,0.8c0-0.6,0.2-0.8,0.4-1c1.3-1.4,2.5-2.7,3.8-4  c0.5-0.5,1.1-1,1.9-1.1C45.4,120.7,45.2,120.9,45.1,121z M114.7,105.3l-4.6,3.3c-0.2,0.1-0.4,0-0.5-0.1c-0.1,0.4-0.6,0.8-0.6,0.8  c-13.9,9.9-23.8-6-10-14.5l6.1-3.5C115.5,86,123.1,97.4,114.7,105.3z"/><text x="0" y="215" fill="#000000" font-size="5px" font-weight="bold" font-family="'Helvetica Neue', Helvetica, Arial-Unicode, Arial, Sans-serif">Created by Michael T</text><text x="0" y="220" fill="#000000" font-size="5px" font-weight="bold" font-family="'Helvetica Neue', Helvetica, Arial-Unicode, Arial, Sans-serif">from the Noun Project</text></svg>