<svg xmlns="http://www.w3.org/2000/svg" version="1.1" viewBox="-5.0 -10.0 110.0 135.0">
 <path d="m25.031 95.172c-0.046875 0.054687-0.097656 0.11328-0.15234 0.16797l-2.5156 2.5156c-0.74609 0.74609-1.9609 0.74609-2.707 0l-11.488-11.484c-0.74609-0.75-0.74609-1.9609 0-2.707l2.5156-2.5156c0.10156-0.10156 0.21484-0.19141 0.33203-0.26563 0 0 0.003906-0.003906 0.003906-0.007812l16.191-16.188c0.55078-0.55469 1.4297-0.58203 2.0156-0.082031l7.0781-7.082-0.10938-3.2734c-0.015624-0.40625 0.14063-0.80859 0.42969-1.0977l1.1445-1.1445-2.1406-2.1406-0.62891 0.62891c0.058594 0.44531-0.078125 0.90625-0.41797 1.2461l-5.8086 5.8086c-0.58203 0.57812-1.5195 0.57812-2.1016 0l-4.2148-4.2148c-0.58203-0.58203-0.57812-1.5234 0-2.1016l5.8086-5.8086c0.4375-0.4375 1.0781-0.54688 1.6133-0.32031l9.1172-9.1172 1.7617-3.7656c0.074219-0.15625 0.17578-0.29688 0.29688-0.42188l9.4531-9.4492c0.57813-0.58203 1.5195-0.58203 2.0977 0l5.2852 5.2852c0.58203 0.57812 0.58203 1.5195 0.003906 2.0977l-9.4531 9.4531c-0.12109 0.125-0.26562 0.22266-0.42188 0.29688l-2.8281 1.3242 0.46875 3.3086 2.7578-2.7578c0.050781-0.046875 0.10156-0.089844 0.15234-0.13281 0.046876-0.058593 0.097657-0.11328 0.15234-0.16797l30.168-30.172c-0.14062-0.61719 0.03125-1.293 0.51562-1.7773l6.6602-6.6641c0.75-0.75 1.9648-0.75 2.7109-0.003906l3.1719 3.1719c0.75 0.75 0.74609 1.9609 0 2.7109l-6.6641 6.6641c-0.24609 0.24609-0.53906 0.41016-0.84766 0.49219l-15.652 15.652-0.058594 5.6758c0 0.38672-0.15625 0.75781-0.43359 1.0352l-6.6055 6.6055-9.3984 13.66v2.5625c-0.003906 0.39453-0.16016 0.76953-0.4375 1.0508l-4.6797 4.6758 2.0664 3.2773c0.375 0.58203 0.28906 1.3477-0.20312 1.8398l-9.6523 9.6523c-0.21484 0.21484-0.49219 0.35938-0.79297 0.41406l-8.4609 1.4922-4.6172 11.469c-0.10547 0.25391-0.26953 0.46484-0.48047 0.62891zm-12.992-11.18-1.0234 1.0234 9.9922 9.9961 1.0234-1.0273zm19.289-17.289 3.1523 3.1523c0.42188 0.42188 0.55078 1.0508 0.32812 1.6055l-3.3672 8.3633 6.1719-1.0898 8.4844-8.4805-3.0117-4.7578-2.4961-2.4961c-0.57812-0.57812-0.58203-1.5195 0-2.1016l6.8633-6.8633c0.58203-0.57812 1.5234-0.57812 2.1016 0l1.1445 1.1445 8.6172-12.523c0.050782-0.078125 0.11328-0.14844 0.17578-0.21094l6.2734-6.2734 0.019531-2.0391-11.992 11.992c-0.35938 0.35938-0.84766 0.5625-1.3555 0.5625s-0.99609-0.20312-1.3555-0.5625l-1.6133-1.6133-10.285 10.285 0.11328 3.2734c0.011719 0.41016-0.14453 0.80859-0.43359 1.0977zm-7.7344 24.645 8.0938-20.086-3.4258-3.4258-14.09 14.09zm16.277-41.441 3.2031-3.1992c-0.046875-0.10547-0.074219-0.21875-0.09375-0.33594l-0.47656-3.375-4.7734 4.7695zm-6.7539-1.7266 9.2188-9.2188c0.12109-0.12109 0.26562-0.21875 0.42187-0.29297l2.082-0.97656-2.2891-2.2891-0.97656 2.082c-0.074219 0.15625-0.17188 0.29688-0.29297 0.42188l-9.2188 9.2188zm47.668-34.98-29.215 29.211 0.86719 0.86719 29.215-29.211zm3.1445-1.0586 5.1719-5.1719-1.6797-1.6797-5.1719 5.1719zm-38.383 51.688 3.7695-3.7734v-2.0547l-0.8125-0.8125-4.7617 4.7617 1.5625 1.5625c0.078124 0.078125 0.14453 0.16406 0.20703 0.25781zm-16.23-15.254-3.7109 3.7109 2.1172 2.1172 3.707-3.7109zm22.242-23.074-7.3555 7.3516 3.1875 3.1875 7.3516-7.3555z" fill-rule="evenodd"/>
<text x="0.0" y="117.5" font-size="5.0" font-weight="bold" font-family="Arbeit Regular, Helvetica, Arial-Unicode, Arial, Sans-serif" fill="#000000">Created by Ahmad Arzaha</text><text x="0.0" y="122.5" font-size="5.0" font-weight="bold" font-family="Arbeit Regular, Helvetica, Arial-Unicode, Arial, Sans-serif" fill="#000000">from Noun Project</text></svg>