<svg xmlns="http://www.w3.org/2000/svg" version="1.1" viewBox="-5.0 -10.0 110.0 135.0">
 <path d="m84.293 27.801-0.80078-2.0078 1.6523-0.66016 0.80078 2.0078-0.66016 0.26172-0.99219 0.39453zm-18.996 32.703-2.7344 2.4258c-1.2695-0.58203-2.6328-1.8867-3.8711-3.4258-1.6523-2.0508-3.0742-4.5039-3.7656-6.2422-0.066406-0.16797-0.25391-0.25-0.42188-0.18359-0.16797 0.066406-0.24609 0.25391-0.18359 0.42188 0.71484 1.7891 2.1719 4.3125 3.8633 6.4102 1.2148 1.5078 2.5586 2.8086 3.8516 3.4844l-3.4219 3.0312c-4.0586-3.2695-6.1055-6.0312-7.8477-9.5898l-6.0078 2.6055c-0.082031 0.035156-0.16797 0.054688-0.25781 0.054688-0.015625 0-0.035156 0-0.050781-0.003906-0.042969-0.003907-0.078125-0.011719-0.12109-0.015626 0.035156 4.3398 0.35156 5.1289 1.8438 8.8438l0.19922 0.5-7.5625 1.0508c-0.35156-1.0781-0.72266-3.3789-0.82422-5.4766-0.082031-1.6562 0.003906-3.1641 0.39453-3.7656 0.058594-0.082031 0.078125-0.1875 0.046875-0.28906-0.82031-2.5977-1.5039-2.8086-2.7266-3.1836-0.55859-0.17188-1.2383-0.38281-2.1289-0.94141l0.68359-1.1836 12.871-5.1406 0.29688 0.74609c0.19922 0.49609 0.38281 0.95703 0.57031 1.4258l0.58984-0.24609s0.007813 0 0.011719-0.003906c-0.18359-0.45703-0.37109-0.92578-0.56641-1.4141l-0.29688-0.74609 8.2266-3.2852c1.1211 3.0664 2.5586 6.1445 4.3086 8.7695 1.4609 2.1914 3.1367 4.0664 5.0312 5.3633zm-15.086-4.8398c-0.37891-0.83203-0.75-1.7109-1.1328-2.6484l-3.3633 1.4102c0.15625 0.4375 0.33203 0.83984 0.73438 1.0469 0.31641 0.16406 0.44141 0.55469 0.27734 0.87109-0.11328 0.22266-0.33984 0.34766-0.57422 0.34766-0.10156 0-0.20312-0.023437-0.29688-0.074218-0.79688-0.41016-1.1211-1.1094-1.3359-1.6953l-1.3164 0.55469c-0.57422 0.37109-0.003906 1.5547 0.003906 1.5664 0.45312 0.90234 0.71484 1.0781 1.1875 1.1406l5.8164-2.5234zm-15.219-16.848 0.66797 1.6758c0.007813 0.015624 0.015625 0.035156 0.019532 0.050781 0.078124 0.17969 0.22266 0.3125 0.39062 0.38672 0.17188 0.074218 0.36719 0.085937 0.55078 0.019531 0.015625-0.007813 0.03125-0.015625 0.050781-0.019531l5.4531-2.1797 2.1445-0.85547c0.19141-0.074219 0.33203-0.22266 0.41016-0.40234 0.074218-0.17969 0.085937-0.38281 0.007812-0.57422l-0.69141-1.7305c-0.074219-0.19141-0.22266-0.33203-0.39844-0.40625-0.17969-0.074219-0.38281-0.085938-0.57422-0.007812l-7.5977 3.0352c-0.015625 0.007812-0.035156 0.015625-0.050781 0.019531-0.17969 0.078125-0.3125 0.22266-0.38672 0.39062-0.074219 0.17188-0.085937 0.36719-0.019531 0.55078 0.007812 0.015625 0.015625 0.03125 0.019531 0.050781zm-2.0859 16.242c0.16016 0.070312 0.33594 0.11328 0.51172 0.12891l-0.55859 0.96875-0.003906 0.007812-9.3906 16.312c-0.039063 0.066407-0.082032 0.12109-0.13672 0.16406-0.050781 0.046875-0.11328 0.082031-0.18359 0.10938l-5.1836 2.0703c-0.16406 0.066407-0.33984 0.058594-0.49219-0.007812s-0.27734-0.1875-0.34375-0.35156l-6.707-16.793c-0.066407-0.16406-0.058594-0.33984 0.007812-0.49219 0.066407-0.15234 0.1875-0.27734 0.35156-0.34375l19.25-7.6875 2.0039 5.0195c0.16797 0.41797 0.48828 0.72656 0.87109 0.89453zm-4.8555 2.3398c0.019531-0.21484-0.019531-0.43359-0.11328-0.64453l-0.44141-0.98047c-0.14062-0.31641-0.39844-0.55078-0.69531-0.67188-0.29688-0.12109-0.64453-0.12891-0.96484-0.003906l-8.5586 3.418c-0.019532 0.007813-0.039063 0.015625-0.058594 0.023437-0.31641 0.13672-0.55078 0.38281-0.67578 0.67969-0.125 0.29297-0.14453 0.63672-0.023438 0.95703 0.007813 0.019531 0.015625 0.039063 0.023438 0.058594l2.5664 6.4258c0.13281 0.33203 0.38672 0.57812 0.69141 0.71094 0.30469 0.12891 0.65625 0.14453 0.98828 0.011718l0.53516-0.21484c0.125-0.050781 0.23438-0.11328 0.33203-0.19141 0.097656-0.078124 0.18359-0.17187 0.25781-0.28125l5.9141-8.6875c0.12891-0.19141 0.20312-0.39844 0.22266-0.61719zm5.2773-12.27c0.054687 0.14062 0.16406 0.24609 0.29688 0.30469s0.28516 0.0625 0.42578 0.007812l20.523-8.1953 16.578-6.6211c0.14062-0.054688 0.24609-0.16406 0.30469-0.29688 0.058594-0.13281 0.0625-0.28516 0.007813-0.42578l-0.53906-1.3477c-0.054687-0.14063-0.16406-0.24609-0.29688-0.30469-0.13281-0.058594-0.28516-0.0625-0.42578-0.007812l-25.684 10.258-1.0781 0.42969-10.34 4.1289c-0.14062 0.054687-0.24609 0.16406-0.30469 0.29688-0.058594 0.13281-0.0625 0.28516-0.007813 0.42578zm37.684-4.7734-3.4219 1.3672 2.7656 6.9258 3.6758-1.4688-2.7656-6.9258zm7.6836-4.8242c0.097657 0.25 0.089844 0.51562-0.011718 0.74609-0.097656 0.23047-0.28516 0.42578-0.53125 0.52344l-22.094 8.8242-0.015625 0.003906c-0.011719 0.003906-0.023438 0.011719-0.035157 0.015625l-22.094 8.8242c-0.25 0.10156-0.51953 0.089844-0.75-0.011719-0.23047-0.097656-0.42187-0.28516-0.52344-0.53125l-2.125-5.3203c-0.097656-0.25-0.085937-0.51953 0.011719-0.75s0.28516-0.42188 0.53125-0.52344l3.2305-1.2891 20.523-8.1953 20.48-8.1797c0.25-0.10156 0.51953-0.089844 0.75 0.011719 0.23047 0.097656 0.42188 0.28516 0.52344 0.53125l1.0625 2.6602 0.71094 1.7773 0.35156 0.88281zm-16.297 4.2109-0.40625-1.0195c-0.066407-0.16797-0.25391-0.25-0.42188-0.18359l-1.0195 0.40625c-0.16797 0.066407-0.25 0.25391-0.18359 0.42188l0.40625 1.0195c0.066406 0.16797 0.25391 0.25 0.42187 0.18359l1.0195-0.40625c0.16797-0.066406 0.25-0.25391 0.18359-0.42187zm3.7578-1.6094-0.40625-1.0195c-0.066406-0.16797-0.25391-0.25-0.42188-0.18359l-1.0195 0.40625c-0.16797 0.066406-0.25 0.25391-0.18359 0.42187l0.40625 1.0195c0.066406 0.16797 0.25391 0.25 0.42188 0.18359l1.0195-0.40625c0.16797-0.066407 0.25-0.25391 0.18359-0.42188zm3.9805-1.5898-0.40625-1.0195c-0.066407-0.16797-0.25391-0.24609-0.42188-0.18359l-1.0195 0.40625c-0.16797 0.066406-0.25 0.25391-0.18359 0.42188l0.40625 1.0195c0.066406 0.16797 0.25391 0.25 0.42188 0.18359l1.0195-0.40625c0.16797-0.066406 0.25-0.25391 0.18359-0.42188zm4.1641-1.6641-0.40625-1.0195c-0.066406-0.16797-0.25391-0.25-0.42188-0.18359l-1.0195 0.40625c-0.16797 0.066407-0.25 0.25391-0.18359 0.42188l0.40625 1.0195c0.066407 0.16797 0.25391 0.25 0.42188 0.18359l1.0195-0.40625c0.16797-0.066406 0.25-0.25391 0.18359-0.42188zm-1.3047-0.30859 0.16406 0.41406 0.41406-0.16406-0.16406-0.41406zm15.449-7.7305-1.957 0.78125-2.2578 0.90234-6.5859 2.6328 0.64062 1.5977 0.53906 1.3555 10.801-4.3125-1.1797-2.9531zm-19.613 9.3906 0.16406 0.41406 0.41406-0.16406-0.16406-0.41406zm-7.7383 3.1992 0.16406 0.41406 0.41406-0.16406-0.16406-0.41406zm3.7578-1.6094 0.16406 0.41406 0.41406-0.16406-0.16406-0.41406z"/>
<text x="0.0" y="117.5" font-size="5.0" font-weight="bold" font-family="Arbeit Regular, Helvetica, Arial-Unicode, Arial, Sans-serif" fill="#000000">Created by Nanik haq</text><text x="0.0" y="122.5" font-size="5.0" font-weight="bold" font-family="Arbeit Regular, Helvetica, Arial-Unicode, Arial, Sans-serif" fill="#000000">from Noun Project</text></svg>